# xmcd CD database file
# Copyright (C) 1993-1996 Ti Kan
#
# Track frame offsets:
# 180
# 14316
# 27176
# 40557
# 55320
# 74425
# 91667
# 104293
# 119793
# 134602
#
# Disc length: 1971 seconds
# Revision: 0
# Processed by: cddbd v1.4b41PL1 Copyright (c) Steve Scherf et al.
# Submitted via: CDSpectrumPro v3.2.327
#
DISCID=8407b10a
DTITLE=Foster Martin Band - Foster Martin Band
DYEAR=1900
DGENRE=
TTITLE0=I May Never Get To Heaven ( But What A Way To Go )
TTITLE1=You Can't 2-Step ( Without A Country Girl )
TTITLE2=Willy's Bar and Grill
TTITLE3=Rodeo Queen ( Cowboy Wedding Song )
TTITLE4=Stay Out Of The Rain
TTITLE5=Like We Used To Do
TTITLE6=Brother Joe
TTITLE7=Just Like You
TTITLE8=Don't You Dare Go
TTITLE9=Unpredictable Love
EXTD=
EXTT0=
EXTT1=
EXTT2=
EXTT3=
EXTT4=
EXTT5=
EXTT6=
EXTT7=
EXTT8=
EXTT9=
PLAYORDER=
